<svg width="107" height="53" viewBox="0 0 107 53" fill="none" xmlns="http://www.w3.org/2000/svg">
<g clip-path="url(#clip0_320_284)">
<path d="M105.532 28.6845H103.76C103.753 28.6775 103.76 28.6715 103.753 28.6644L97.8831 13.1218C97.8761 13.1024 97.8737 13.0817 97.8764 13.0612C97.8791 13.0408 97.8866 13.0213 97.8984 13.0044C97.9102 12.9875 97.9259 12.9737 97.9441 12.9641C97.9624 12.9546 97.9827 12.9496 98.0033 12.9495C98.3476 12.9514 98.6916 12.9263 99.032 12.8744H99.044C103.178 12.7392 105.865 8.16695 102.75 4.98992C102.077 4.14658 98.8777 2.75237 98.6624 4.48913C98.6618 4.49579 98.6618 4.50249 98.6624 4.50915C98.6591 4.73045 98.743 4.94416 98.8959 5.10418C99.0488 5.26419 99.2585 5.3577 99.4797 5.36451C100.961 5.37753 102.218 6.76673 102.091 8.21302C102.092 8.22167 102.092 8.23041 102.091 8.23906C99.8873 16.423 80.5737 -0.514811 63.7671 8.5125C63.7478 8.52316 63.7261 8.52859 63.7041 8.52825C63.682 8.52792 63.6605 8.52184 63.6416 8.5106C63.6226 8.49936 63.607 8.48336 63.5961 8.46419C63.5853 8.44502 63.5796 8.42334 63.5798 8.40132V7.17237C63.5799 7.1445 63.5892 7.11746 63.6062 7.09538C63.6232 7.0733 63.647 7.05742 63.6739 7.05018C67.1985 6.01153 67.2326 1.08874 63.713 0.00702362C63.6309 -0.00299225 42.901 -0.00299225 42.8169 0.00702362C39.3113 1.08573 39.3434 6.02255 42.8629 7.05018C42.8899 7.05742 42.9137 7.0733 42.9307 7.09538C42.9477 7.11746 42.957 7.1445 42.9571 7.17237V8.41434C42.957 8.43619 42.9513 8.45765 42.9405 8.47666C42.9297 8.49566 42.9142 8.51158 42.8955 8.52285C42.8768 8.53412 42.8555 8.54038 42.8336 8.54102C42.8118 8.54166 42.7902 8.53667 42.7708 8.52652C34.5408 3.98031 24.7112 5.88533 16.2989 8.58561C13.4093 9.36985 10.4726 10.6639 7.49491 10.5207C5.19126 10.5547 3.39942 8.23105 5.10912 6.26894C5.35469 5.99472 5.65353 5.77338 5.98741 5.61841C6.3213 5.46343 6.68325 5.37806 7.0512 5.36751C7.26547 5.35887 7.46862 5.26989 7.62025 5.11826C7.77188 4.96663 7.86086 4.76348 7.8695 4.54922C7.8749 4.32619 7.79191 4.11005 7.63863 3.94795C7.48534 3.78585 7.27419 3.69092 7.0512 3.68385C4.55725 3.57568 2.34374 5.7972 2.42487 8.31819C2.41986 11.0225 5.50976 12.9035 7.33265 12.8714C7.73328 12.9115 8.13392 12.9325 8.53455 12.9375C8.55496 12.9377 8.57502 12.9428 8.59305 12.9523C8.61107 12.9619 8.62653 12.9757 8.63812 12.9925C8.64971 13.0093 8.65708 13.0286 8.65963 13.0488C8.66218 13.0691 8.65981 13.0896 8.65274 13.1088L2.77443 28.6735C2.77209 28.6762 2.77035 28.6794 2.76932 28.6828C2.76829 28.6863 2.76798 28.6899 2.76842 28.6935H0.996608C0.852163 28.6917 0.709116 28.7219 0.577738 28.782C0.446359 28.8421 0.329913 28.9305 0.236749 29.0409C0.143585 29.1513 0.076013 29.2809 0.0388953 29.4205C0.0017777 29.5601 -0.00396799 29.7062 0.0220657 29.8483C0.717167 33.1535 4.30786 35.6675 8.64172 35.6675H11.0616V35.6605C15.3203 35.5994 18.8369 33.1055 19.525 29.8513C19.5513 29.7086 19.5459 29.5618 19.5091 29.4215C19.4722 29.2811 19.4048 29.1506 19.3118 29.0393C19.2187 28.9279 19.1022 28.8385 18.9706 28.7774C18.839 28.7162 18.6955 28.6848 18.5504 28.6855H16.7716V28.6654L10.8242 12.9155C10.8174 12.8977 10.8146 12.8787 10.8162 12.8598C10.8178 12.8409 10.8236 12.8225 10.8332 12.8062C10.8428 12.7898 10.856 12.7758 10.8718 12.7653C10.8876 12.7547 10.9055 12.7479 10.9243 12.7452C12.9966 12.4447 15.0238 11.8087 17.0581 11.37C25.0818 9.32779 34.6409 7.84043 41.5769 13.0106V15.754C41.5769 15.7877 41.5635 15.8201 41.5397 15.8439C41.5158 15.8678 41.4834 15.8812 41.4497 15.8812H23.5213C23.094 15.8825 22.6846 16.0528 22.3825 16.3549C22.0804 16.6571 21.9101 17.0665 21.9087 17.4937V18.948C21.9093 19.222 21.9854 19.4904 22.1287 19.7239C22.272 19.9573 22.477 20.1467 22.721 20.2711C22.7311 20.3292 48.6882 20.2581 48.7192 20.2852C48.7486 20.2859 48.7772 20.2763 48.8002 20.258C48.8231 20.2397 48.8388 20.2138 48.8444 20.185C48.8598 20.1119 48.854 20.036 48.8278 19.9661C48.8015 19.8962 48.7559 19.8352 48.6962 19.7904L48.582 19.7092C48.5717 19.7027 48.562 19.6953 48.553 19.6872C48.0522 19.2625 47.6626 18.5624 47.6626 17.8904V12.1883C47.6626 12.06 47.7135 11.937 47.8043 11.8462C47.895 11.7555 48.018 11.7046 48.1463 11.7046H50.7685C50.8022 11.7046 50.8346 11.718 50.8584 11.7418C50.8823 11.7657 50.8957 11.798 50.8957 11.8318V17.8904C50.8863 18.2425 50.7976 18.5879 50.6364 18.9011C50.4751 19.2142 50.2454 19.487 49.9642 19.6992C49.8804 19.7478 49.8123 19.8194 49.7679 19.9055C49.7235 19.9916 49.7048 20.0886 49.7138 20.185C49.7195 20.2138 49.7352 20.2397 49.7581 20.258C49.781 20.2763 49.8097 20.2859 49.839 20.2852C49.8981 20.2711 83.7527 20.3122 83.8028 20.2711C84.0464 20.1465 84.2508 19.957 84.3934 19.7235C84.5361 19.49 84.6114 19.2216 84.6111 18.948V17.3665C84.6116 16.9735 84.4561 16.5963 84.1788 16.3178C83.9014 16.0393 83.5248 15.8822 83.1318 15.8812H65.0792C65.0454 15.8812 65.0131 15.8678 64.9892 15.8439C64.9654 15.8201 64.952 15.7877 64.952 15.754V13.0216C64.9528 13.0018 64.9583 12.9825 64.9678 12.9651C64.9774 12.9478 64.9908 12.9328 65.007 12.9215C67.0256 11.5298 69.2962 10.5452 71.6916 10.0229C79.7154 8.22004 87.6549 11.2318 95.6065 12.7452C95.6252 12.748 95.6431 12.755 95.6588 12.7656C95.6744 12.7762 95.6876 12.7902 95.6972 12.8065C95.7068 12.8228 95.7126 12.841 95.7142 12.8599C95.7159 12.8788 95.7133 12.8977 95.7067 12.9155L89.7583 28.6745V28.6945H87.9794C87.8341 28.6929 87.6901 28.7237 87.5581 28.7846C87.426 28.8454 87.3092 28.9349 87.2159 29.0465C87.1226 29.158 87.0553 29.2889 87.0188 29.4297C86.9824 29.5704 86.9776 29.7175 87.0049 29.8603C87.693 33.1175 91.2116 35.6114 95.4683 35.6695V35.6765H97.8871C102.215 35.6765 105.813 33.1616 106.508 29.8573C106.537 29.7139 106.533 29.5658 106.497 29.4239C106.461 29.282 106.394 29.15 106.301 29.0375C106.207 28.925 106.089 28.8349 105.957 28.7738C105.824 28.7127 105.679 28.6822 105.532 28.6845ZM9.22766 29.2934C9.22766 29.3272 9.21426 29.3595 9.1904 29.3834C9.16655 29.4072 9.13419 29.4206 9.10045 29.4206H3.79204C3.77143 29.4207 3.75112 29.4157 3.73285 29.4062C3.71459 29.3966 3.69892 29.3828 3.68719 29.3658C3.67547 29.3489 3.66803 29.3293 3.66553 29.3089C3.66304 29.2884 3.66555 29.2676 3.67285 29.2484L8.98126 15.1831C8.99169 15.1551 9.01166 15.1316 9.03763 15.1169C9.06361 15.1021 9.09395 15.097 9.12334 15.1024C9.15273 15.1077 9.17929 15.1233 9.19836 15.1463C9.21743 15.1693 9.22781 15.1983 9.22766 15.2281V29.2934ZM15.5757 29.4116C15.583 29.4309 15.5855 29.4516 15.583 29.4721C15.5805 29.4926 15.5731 29.5121 15.5614 29.5291C15.5496 29.546 15.534 29.5599 15.5157 29.5694C15.4974 29.579 15.4771 29.5839 15.4565 29.5839H10.2753C10.2416 29.5839 10.2092 29.5705 10.1854 29.5466C10.1615 29.5228 10.1481 29.4904 10.1481 29.4567V15.7349C10.148 15.7051 10.1583 15.6761 10.1774 15.6531C10.1965 15.6301 10.223 15.6146 10.2524 15.6092C10.2818 15.6038 10.3122 15.6089 10.3381 15.6237C10.3641 15.6384 10.3841 15.6619 10.3945 15.6899L15.5757 29.4116ZM43.7203 6.17479C43.0604 6.17453 42.4276 5.91218 41.961 5.44544C41.4945 4.9787 41.2324 4.34579 41.2324 3.68585C41.3626 0.385622 46.078 0.386623 46.2093 3.68585C46.2097 4.01317 46.1455 4.33736 46.0205 4.63987C45.8955 4.94237 45.712 5.21726 45.4807 5.4488C45.2493 5.68035 44.9746 5.864 44.6722 5.98926C44.3698 6.11452 44.0456 6.17894 43.7183 6.1788L43.7203 6.17479ZM50.6313 9.94276H48.0211C47.9266 9.94276 47.8359 9.9052 47.769 9.83833C47.7021 9.77146 47.6646 9.68076 47.6646 9.58619V2.23355C47.6646 2.10525 47.7155 1.98219 47.8063 1.89147C47.897 1.80074 48.02 1.74978 48.1483 1.74978H50.7204C53.2084 1.78583 54.6707 3.33129 54.6707 5.78818C54.6867 8.37528 53.0291 9.9618 50.6303 9.94677L50.6313 9.94276ZM54.6316 13.9191H54.5314C54.4543 13.9235 54.3778 13.9022 54.314 13.8585C54.2502 13.8148 54.2027 13.7512 54.1789 13.6777C54.1699 13.6126 54.256 13.6326 54.2941 13.6296L54.4944 13.1088C54.5007 13.0917 54.5033 13.0735 54.502 13.0554C54.5007 13.0373 54.4956 13.0196 54.487 13.0036C54.4784 12.9876 54.4665 12.9736 54.452 12.9625C54.4376 12.9515 54.4209 12.9436 54.4032 12.9395L54.2861 12.9115C53.9726 12.8323 53.626 12.7732 53.3345 12.9345C53.3078 12.9516 53.287 12.9766 53.275 13.006C53.263 13.0354 53.2604 13.0678 53.2674 13.0988H54.0226C54.0938 13.0988 54.0837 13.1759 54.0837 13.226C54.0839 13.2341 54.0824 13.2421 54.0794 13.2497C54.0764 13.2572 54.0719 13.264 54.0662 13.2698C54.0605 13.2756 54.0537 13.2802 54.0462 13.2833C54.0388 13.2865 54.0307 13.2881 54.0226 13.2881H52.3199C52.2488 13.2881 52.2578 13.2099 52.2588 13.1599C52.2588 13.1437 52.2653 13.1281 52.2767 13.1167C52.2882 13.1052 52.3037 13.0988 52.3199 13.0988H53.0751C53.0818 13.0676 53.0788 13.0351 53.0666 13.0056C53.0545 12.9761 53.0337 12.951 53.007 12.9335C52.7216 12.7773 52.367 12.8333 52.0575 12.9115C52.0175 12.9195 51.9774 12.9305 51.9373 12.9395C51.9198 12.9439 51.9034 12.9519 51.8892 12.963C51.875 12.9742 51.8633 12.9882 51.8549 13.0042C51.8464 13.0202 51.8415 13.0377 51.8403 13.0558C51.8392 13.0738 51.8419 13.0919 51.8482 13.1088L52.0485 13.6296C52.0856 13.6296 52.1727 13.6136 52.1627 13.6777C52.1186 13.878 51.8943 13.9351 51.711 13.9191C51.6329 13.9248 51.5552 13.9041 51.4904 13.8603C51.4255 13.8166 51.3773 13.7522 51.3534 13.6777C51.3444 13.6136 51.4295 13.6316 51.4676 13.6296L51.714 12.9766C51.695 12.9776 51.6759 12.9776 51.6569 12.9766C51.6068 12.9735 51.5593 12.9529 51.5228 12.9185C51.4862 12.8842 51.4628 12.8381 51.4566 12.7883C51.4563 12.7629 51.4611 12.7378 51.4707 12.7144C51.4802 12.6909 51.4944 12.6696 51.5123 12.6517C51.5302 12.6338 51.5515 12.6196 51.575 12.6101C51.5984 12.6005 51.6235 12.5957 51.6489 12.596C51.657 12.5974 51.6644 12.6016 51.6698 12.6079C51.6751 12.6142 51.678 12.6222 51.678 12.6305C51.678 12.6388 51.6751 12.6468 51.6698 12.6531C51.6644 12.6595 51.657 12.6637 51.6489 12.6651C51.6183 12.667 51.5896 12.6806 51.5687 12.7031C51.4976 12.7843 51.5687 12.8814 51.6689 12.8804C51.7938 12.8716 51.9167 12.8443 52.0335 12.7993C52.386 12.6861 52.7977 12.607 53.1412 12.7993V12.7352C53.1052 12.7261 53.0737 12.7042 53.0527 12.6736C53.0317 12.643 53.0226 12.6057 53.0272 12.5689C53.0318 12.532 53.0496 12.4981 53.0775 12.4735C53.1053 12.4489 53.1412 12.4353 53.1783 12.4353C53.2154 12.4353 53.2513 12.4489 53.2791 12.4735C53.307 12.4981 53.3248 12.532 53.3294 12.5689C53.3339 12.6057 53.3249 12.643 53.3039 12.6736C53.2829 12.7042 53.2514 12.7261 53.2154 12.7352V12.7993C53.9165 12.4147 54.7237 13.1248 54.8179 12.7823C54.8187 12.7673 54.8165 12.7524 54.8115 12.7382C54.8065 12.7241 54.7988 12.7112 54.7887 12.7001C54.7786 12.689 54.7665 12.68 54.7529 12.6737C54.7394 12.6673 54.7247 12.6637 54.7097 12.6631C54.7051 12.6632 54.7006 12.6624 54.6963 12.6607C54.692 12.659 54.6882 12.6564 54.685 12.6531C54.6818 12.6498 54.6793 12.6458 54.6777 12.6415C54.6761 12.6372 54.6754 12.6326 54.6757 12.628C54.6837 12.5549 54.8169 12.613 54.8449 12.6481C54.869 12.6773 54.8843 12.7129 54.889 12.7505C54.8937 12.7881 54.8876 12.8263 54.8714 12.8606C54.8553 12.8949 54.8297 12.9239 54.7977 12.9443C54.7657 12.9646 54.7286 12.9755 54.6907 12.9756C54.6737 12.9772 54.6566 12.9772 54.6396 12.9756L54.887 13.6286C54.9241 13.6286 55.0092 13.6126 55.0012 13.6767C54.9778 13.7545 54.928 13.8217 54.8603 13.8667C54.7927 13.9117 54.7114 13.9316 54.6306 13.9231L54.6316 13.9191ZM62.9368 17.7782C62.9369 17.8002 62.9314 17.822 62.9207 17.8413C62.91 17.8606 62.8945 17.8768 62.8757 17.8884C62.0188 18.4224 61.0327 18.7129 60.0232 18.7287H55.9166C55.8221 18.7287 55.7314 18.6911 55.6645 18.6242C55.5976 18.5574 55.5601 18.4667 55.5601 18.3721V11.4612C55.5601 11.3666 55.5976 11.2759 55.6645 11.209C55.7314 11.1422 55.8221 11.1046 55.9166 11.1046H59.0907C60.4749 11.1046 61.5205 12.006 61.6948 13.3932V13.4493H61.9322C62.0267 13.4493 62.1174 13.4118 62.1843 13.3449C62.2512 13.278 62.2887 13.1873 62.2887 13.0928V7.49188C62.2885 7.36366 62.2374 7.24076 62.1468 7.15009C62.0561 7.05943 61.9332 7.00837 61.805 7.00811H61.6948V7.06521C61.5255 8.4494 60.4799 9.35383 59.0907 9.35383H56.0438C55.9155 9.35383 55.7925 9.30286 55.7018 9.21214C55.611 9.12142 55.5601 8.99837 55.5601 8.87007V2.23755C55.5601 2.10925 55.611 1.9862 55.7018 1.89548C55.7925 1.80475 55.9155 1.75379 56.0438 1.75379H60.0232C61.0327 1.76955 62.0188 2.06006 62.8757 2.59412C62.8945 2.60567 62.91 2.62188 62.9207 2.64118C62.9314 2.66048 62.9369 2.68222 62.9368 2.70429V17.7782ZM96.0813 29.2894C96.0813 29.3232 96.0679 29.3555 96.044 29.3794C96.0202 29.4032 95.9878 29.4166 95.9541 29.4166H90.7739C90.7533 29.4167 90.733 29.4117 90.7147 29.4021C90.6964 29.3926 90.6808 29.3787 90.669 29.3618C90.6573 29.3448 90.6499 29.3253 90.6474 29.3048C90.6449 29.2844 90.6474 29.2636 90.6547 29.2444L95.8349 15.5136C95.8453 15.4856 95.8653 15.4622 95.8913 15.4474C95.9172 15.4327 95.9476 15.4275 95.977 15.4329C96.0064 15.4383 96.0329 15.4538 96.052 15.4768C96.0711 15.4998 96.0814 15.5288 96.0813 15.5587V29.2894ZM102.446 29.4166H97.138C97.1042 29.4166 97.0719 29.4032 97.048 29.3794C97.0242 29.3555 97.0107 29.3232 97.0107 29.2894V15.2251C97.0106 15.1953 97.021 15.1663 97.04 15.1433C97.0591 15.1203 97.0857 15.1047 97.1151 15.0994C97.1445 15.094 97.1748 15.0991 97.2008 15.1139C97.2268 15.1286 97.2467 15.1521 97.2571 15.1801L102.566 29.2454C102.574 29.2649 102.577 29.286 102.574 29.307C102.572 29.3279 102.565 29.348 102.553 29.3654C102.541 29.3828 102.525 29.3969 102.506 29.4066C102.487 29.4162 102.466 29.421 102.445 29.4206L102.446 29.4166Z" fill="#C1A17C"/>
<path d="M33.45 30.9596C33.3619 30.9596 33.2857 31.0638 33.2216 31.2721C33.1575 31.4724 33.1255 31.6888 33.1255 31.9211C33.1255 32.1134 33.1495 32.2697 33.1976 32.3899C33.2457 32.5101 33.3178 32.5702 33.4139 32.5702V32.6783H26.6232V32.5702L27.0438 32.486C27.1961 32.454 27.3203 32.3819 27.4164 32.2697C27.5126 32.1575 27.5607 32.0213 27.5607 31.861V25.0823C27.5607 24.9221 27.5126 24.7858 27.4164 24.6737C27.3203 24.5615 27.1961 24.4894 27.0438 24.4573L26.6232 24.3732V24.265H29.9404V24.3732L29.4717 24.4693C29.3355 24.4934 29.2233 24.5615 29.1352 24.6737C29.047 24.7858 29.0029 24.9221 29.0029 25.0823V31.7649C29.0029 31.9572 29.067 32.1175 29.1952 32.2457C29.3235 32.3739 29.4837 32.438 29.676 32.438H31.7072C31.8034 32.438 31.8875 32.3819 31.9596 32.2697C32.0398 32.1495 32.1239 31.9732 32.212 31.7409C32.3482 31.4204 32.4684 31.184 32.5726 31.0317C32.6848 30.8715 32.829 30.7914 33.0053 30.7914C33.1415 30.7914 33.2897 30.8474 33.45 30.9596ZM39.4814 32.5702V32.6783H37.342V32.1134C37.1497 32.3538 36.8733 32.5541 36.5127 32.7144C36.3124 32.8106 36.056 32.8586 35.7435 32.8586C35.0704 32.8586 34.5416 32.7264 34.157 32.462C33.7804 32.1976 33.5921 31.829 33.5921 31.3562C33.5921 31.1239 33.6722 30.8995 33.8324 30.6832C33.9927 30.4588 34.2251 30.2585 34.5295 30.0822C34.8581 29.8899 35.2707 29.7457 35.7675 29.6495C36.2643 29.5454 36.7891 29.4933 37.342 29.4933V28.7722C37.342 28.2353 37.2699 27.8507 37.1257 27.6183C36.9894 27.386 36.721 27.2698 36.3204 27.2698C36.0319 27.2698 35.7996 27.3379 35.6233 27.4741C35.455 27.6023 35.3709 27.7946 35.3709 28.051C35.3709 28.1792 35.415 28.3074 35.5031 28.4356C35.5912 28.5558 35.7074 28.6319 35.8516 28.664C35.8516 28.8162 35.7715 28.9564 35.6113 29.0846C35.459 29.2129 35.2827 29.277 35.0824 29.277C34.7459 29.277 34.4975 29.1768 34.3372 28.9765C34.177 28.7762 34.0969 28.5478 34.0969 28.2914C34.0969 28.027 34.205 27.7946 34.4214 27.5943C34.6377 27.394 34.9182 27.2417 35.2627 27.1376C35.6073 27.0254 35.9598 26.9693 36.3204 26.9693C37.0255 26.9693 37.5824 27.1336 37.991 27.4621C38.4077 27.7906 38.616 28.2273 38.616 28.7722V31.8731C38.616 32.0253 38.6601 32.1615 38.7482 32.2817C38.8444 32.3939 38.9686 32.466 39.1208 32.4981L39.4814 32.5702ZM37.342 29.8659C36.6529 29.8659 36.1281 30.0021 35.7675 30.2745C35.4069 30.539 35.2267 30.9316 35.2267 31.4524C35.2267 31.7489 35.3108 31.9973 35.4791 32.1976C35.6473 32.3899 35.8516 32.486 36.092 32.486C36.2683 32.486 36.4246 32.446 36.5608 32.3658C36.705 32.2777 36.8572 32.1535 37.0175 31.9933C37.1617 31.849 37.2699 31.6848 37.342 31.5005V29.8659ZM44.9775 29.6736V31.861C44.9775 32.0213 45.0256 32.1575 45.1217 32.2697C45.2179 32.3819 45.3421 32.454 45.4943 32.486L45.915 32.5702V32.6783H42.5977V32.5702L43.0184 32.486C43.1706 32.454 43.2948 32.3819 43.391 32.2697C43.4871 32.1575 43.5352 32.0213 43.5352 31.861V25.0823C43.5352 24.9221 43.4871 24.7858 43.391 24.6737C43.2948 24.5615 43.1706 24.4894 43.0184 24.4573L42.5977 24.3732V24.265H45.4703C46.1033 24.265 46.6802 24.3331 47.201 24.4693C47.7218 24.6056 48.1545 24.7938 48.4991 25.0342C49.2282 25.547 49.5928 26.1921 49.5928 26.9693C49.5928 27.7465 49.2282 28.3916 48.4991 28.9044C48.1545 29.1447 47.7218 29.333 47.201 29.4693C46.6802 29.6055 46.1033 29.6736 45.4703 29.6736H44.9775ZM44.9775 29.4332H45.4703C46.3116 29.4332 46.9406 29.2289 47.3573 28.8202C47.7739 28.4116 47.9822 27.7946 47.9822 26.9693C47.9822 26.144 47.7739 25.527 47.3573 25.1184C46.9406 24.7097 46.3116 24.5054 45.4703 24.5054H44.9775V29.4332ZM53.9999 30.2986C54.3365 30.2986 54.5849 30.3987 54.7451 30.599C54.9054 30.7994 54.9855 31.0277 54.9855 31.2841C54.9855 31.5726 54.8733 31.837 54.649 32.0774C54.4326 32.3178 54.1442 32.5101 53.7836 32.6543C53.423 32.7905 53.0424 32.8546 52.6418 32.8466C52.2411 32.8626 51.8565 32.8025 51.488 32.6663C51.1274 32.5301 50.8229 32.3338 50.5745 32.0774C49.9976 31.5245 49.7091 30.8034 49.7091 29.914C49.7091 29.0085 49.9776 28.2754 50.5144 27.7145C50.7388 27.4821 51.0112 27.3018 51.3317 27.1736C51.6602 27.0374 52.0048 26.9693 52.3653 26.9693C52.7259 26.9693 53.0665 27.0374 53.387 27.1736C53.7155 27.3018 53.9959 27.4821 54.2283 27.7145C54.6289 28.1231 54.8773 28.656 54.9735 29.313H51.1514C51.1274 29.5053 51.1154 29.7016 51.1154 29.9019C51.1154 30.6311 51.2516 31.2561 51.524 31.7769C51.7964 32.2897 52.177 32.5461 52.6658 32.5461C52.9383 32.5461 53.1786 32.442 53.387 32.2336C53.6033 32.0253 53.7115 31.7889 53.7115 31.5245C53.7115 31.3963 53.6674 31.2721 53.5793 31.1519C53.4911 31.0237 53.3749 30.9436 53.2307 30.9115C53.2307 30.7593 53.3068 30.6191 53.4591 30.4909C53.6193 30.3627 53.7996 30.2986 53.9999 30.2986ZM52.3052 27.2337C51.9928 27.2337 51.7444 27.41 51.5601 27.7626C51.3838 28.1071 51.2636 28.5157 51.1995 28.9885H53.387C53.3229 28.4036 53.2027 27.9749 53.0264 27.7025C52.8261 27.39 52.5857 27.2337 52.3052 27.2337ZM59.6805 27.2698C59.8167 27.3659 59.9329 27.4861 60.0291 27.6303C60.1252 27.7746 60.1733 27.9308 60.1733 28.0991C60.1733 28.2834 60.1132 28.4637 59.993 28.6399C59.9209 28.7521 59.8167 28.8403 59.6805 28.9044C59.5443 28.9685 59.4081 29.0005 59.2719 29.0005C59.1517 29.0005 59.0555 28.9765 58.9834 28.9284C59.0155 28.8322 59.0315 28.7601 59.0315 28.7121C59.0315 28.5999 58.9954 28.4877 58.9233 28.3755C58.8592 28.2633 58.7711 28.1752 58.6589 28.1111C58.5307 28.031 58.4065 27.9909 58.2863 27.9909C57.9658 27.9909 57.6693 28.2914 57.3969 28.8923V31.8731C57.3969 32.0253 57.441 32.1615 57.5291 32.2817C57.6253 32.3939 57.7495 32.466 57.9017 32.4981L58.2623 32.5702V32.6783H55.2575V32.5702L55.6181 32.4981C55.7703 32.466 55.8905 32.3939 55.9787 32.2817C56.0748 32.1615 56.1229 32.0253 56.1229 31.8731V27.9549C56.1229 27.8026 56.0748 27.6704 55.9787 27.5582C55.8905 27.438 55.7703 27.3619 55.6181 27.3299L55.2575 27.2578V27.1496H57.3969V28.4236C57.5812 28.023 57.8296 27.7025 58.1421 27.4621C58.4626 27.2137 58.7791 27.0895 59.0916 27.0895C59.3079 27.0895 59.5043 27.1496 59.6805 27.2698ZM62.2556 25.7674C62.2556 25.9437 62.1915 26.0999 62.0633 26.2361C61.9431 26.3643 61.7789 26.4284 61.5705 26.4284C61.3622 26.4284 61.1939 26.3643 61.0657 26.2361C60.9455 26.0999 60.8854 25.9437 60.8854 25.7674C60.8854 25.5911 60.9455 25.4389 61.0657 25.3107C61.1939 25.1745 61.3622 25.1063 61.5705 25.1063C61.7789 25.1063 61.9431 25.1745 62.0633 25.3107C62.1915 25.4389 62.2556 25.5911 62.2556 25.7674ZM60.5008 32.4981C60.6531 32.466 60.7733 32.3939 60.8614 32.2817C60.9576 32.1615 61.0056 32.0253 61.0056 31.8731V27.9549C61.0056 27.8026 60.9576 27.6704 60.8614 27.5582C60.7733 27.438 60.6531 27.3619 60.5008 27.3299L60.1403 27.2578V27.1496H62.2796V31.8731C62.2796 32.0253 62.3237 32.1615 62.4119 32.2817C62.508 32.3939 62.6322 32.466 62.7844 32.4981L63.145 32.5702V32.6783H60.1403V32.5702L60.5008 32.4981ZM66.9665 27.1496V27.5102H65.3079V31.1038C65.3079 31.5205 65.396 31.857 65.5723 32.1134C65.7486 32.3699 65.9769 32.4981 66.2574 32.4981C66.5779 32.4981 66.8223 32.4139 66.9906 32.2457C67.1588 32.0694 67.263 31.7929 67.303 31.4163H67.7598C67.7277 31.857 67.5595 32.2096 67.255 32.474C66.9585 32.7304 66.5779 32.8586 66.1132 32.8586C65.4882 32.8586 64.9834 32.7104 64.5988 32.4139C64.2222 32.1094 64.0339 31.7168 64.0339 31.2361V27.5102H62.8079V27.1496C63.1685 27.1496 63.497 27.0614 63.7935 26.8852C64.098 26.7009 64.3383 26.4485 64.5146 26.128C64.6989 25.8075 64.7911 25.4509 64.7911 25.0583H65.3079V27.1496H66.9665ZM73.8853 27.3299C73.733 27.3619 73.6088 27.438 73.5127 27.5582C73.4245 27.6704 73.3805 27.8026 73.3805 27.9549V31.8731C73.3805 32.0253 73.4245 32.1615 73.5127 32.2817C73.6088 32.3939 73.733 32.466 73.8853 32.4981L74.2458 32.5702V32.6783H72.1064V32.1134C71.9141 32.3458 71.6778 32.5301 71.3973 32.6663C71.1169 32.7945 70.8204 32.8586 70.5079 32.8586C70.1313 32.8586 69.7828 32.7865 69.4622 32.6423C69.1498 32.49 68.8974 32.2777 68.705 32.0053C68.5208 31.7248 68.4286 31.4083 68.4286 31.0558V27.9549C68.4286 27.8026 68.3805 27.6704 68.2844 27.5582C68.1962 27.438 68.0761 27.3619 67.9238 27.3299L67.5632 27.2578V27.1496H70.4959V27.2578L70.1954 27.3299C70.0512 27.3699 69.931 27.4461 69.8348 27.5582C69.7467 27.6624 69.7026 27.7906 69.7026 27.9428V30.9356C69.7026 31.4324 69.7908 31.817 69.967 32.0894C70.1513 32.3618 70.4037 32.4981 70.7242 32.4981C70.9246 32.4981 71.1329 32.438 71.3492 32.3178C71.5656 32.1896 71.7459 32.0253 71.8901 31.825C72.0343 31.6167 72.1064 31.4003 72.1064 31.176V27.9428C72.1064 27.7906 72.0584 27.6624 71.9622 27.5582C71.8741 27.4461 71.7579 27.3699 71.6137 27.3299L71.3132 27.2578V27.1496H74.2458V27.2578L73.8853 27.3299ZM84.7733 32.5702V32.6783H81.8406V32.5702L82.1411 32.4981C82.2854 32.458 82.4015 32.3859 82.4897 32.2817C82.5858 32.1695 82.6339 32.0373 82.6339 31.8851V28.7722C82.6339 28.2754 82.5418 27.8908 82.3575 27.6183C82.1812 27.3459 81.9328 27.2097 81.6123 27.2097C81.412 27.2097 81.2036 27.2818 80.9873 27.426C80.771 27.5622 80.5907 27.7505 80.4464 27.9909C80.3022 28.2233 80.2301 28.4837 80.2301 28.7722V31.8851C80.2301 32.0373 80.2742 32.1695 80.3623 32.2817C80.4585 32.3859 80.5786 32.458 80.7229 32.4981L81.0234 32.5702V32.6783H78.1628V32.5702L78.4633 32.4981C78.6075 32.458 78.7237 32.3859 78.8118 32.2817C78.908 32.1695 78.9561 32.0373 78.9561 31.8851V28.7722C78.9561 28.2754 78.8639 27.8908 78.6796 27.6183C78.5034 27.3459 78.255 27.2097 77.9345 27.2097C77.7261 27.2097 77.5138 27.2738 77.2974 27.402C77.0891 27.5302 76.9128 27.7065 76.7686 27.9308C76.6244 28.1472 76.5523 28.3875 76.5523 28.652V31.8851C76.5523 32.0373 76.5963 32.1695 76.6845 32.2817C76.7806 32.3859 76.9008 32.458 77.045 32.4981L77.3455 32.5702V32.6783H74.4129V32.5702L74.7734 32.4981C74.9257 32.466 75.0459 32.3939 75.134 32.2817C75.2302 32.1615 75.2782 32.0253 75.2782 31.8731V27.9549C75.2782 27.8026 75.2302 27.6704 75.134 27.5582C75.0459 27.438 74.9257 27.3619 74.7734 27.3299L74.4129 27.2578V27.1496H76.5523V27.7145C76.7846 27.4501 77.025 27.2417 77.2734 27.0895C77.5218 26.9292 77.8143 26.8491 78.1508 26.8491C78.5434 26.8491 78.912 26.9573 79.2566 27.1736C79.6011 27.382 79.8615 27.6424 80.0378 27.9549C80.2621 27.6183 80.5186 27.3499 80.807 27.1496C81.0955 26.9493 81.436 26.8491 81.8286 26.8491C82.2213 26.8491 82.5738 26.9372 82.8863 27.1135C83.2068 27.2818 83.4552 27.5142 83.6315 27.8106C83.8158 28.0991 83.9079 28.4196 83.9079 28.7722V31.8731C83.9079 32.0253 83.952 32.1615 84.0401 32.2817C84.1363 32.3939 84.2605 32.466 84.4127 32.4981L84.7733 32.5702Z" fill="#2F3545"/>
<path d="M84.7823 34.5397H26.6232V34.7851H84.7823V34.5397Z" fill="#C1A17C"/>
<path d="M91.6182 35.6695H19.4218C17.9996 35.6695 16.8467 36.8224 16.8467 38.2446V41.9445C16.8467 43.3666 17.9996 44.5195 19.4218 44.5195H91.6182C93.0403 44.5195 94.1932 43.3666 94.1932 41.9445V38.2446C94.1932 36.8224 93.0403 35.6695 91.6182 35.6695Z" fill="#2F3545"/>
<path d="M33.6073 42.361V37.4532H34.3084V41.7511H36.9656V42.361H33.6073ZM39.9786 42.361V41.5758L39.9436 41.4285V40.0894C39.9436 39.8043 39.8594 39.5846 39.6912 39.4304C39.5276 39.2715 39.2798 39.192 38.948 39.192C38.7283 39.192 38.5133 39.2294 38.303 39.3042C38.0926 39.3743 37.915 39.4701 37.7701 39.5916L37.4897 39.0868C37.6813 38.9326 37.9103 38.8157 38.1768 38.7363C38.4478 38.6521 38.7306 38.6101 39.0251 38.6101C39.5346 38.6101 39.9272 38.7339 40.203 38.9817C40.4787 39.2294 40.6166 39.608 40.6166 40.1175V42.361H39.9786ZM38.7587 42.4031C38.4829 42.4031 38.2399 42.3563 38.0295 42.2629C37.8239 42.1694 37.6649 42.0408 37.5528 41.8773C37.4406 41.709 37.3845 41.5197 37.3845 41.3094C37.3845 41.1084 37.4312 40.9261 37.5247 40.7625C37.6229 40.5989 37.7795 40.468 37.9945 40.3699C38.2141 40.2717 38.5086 40.2226 38.8779 40.2226H40.0557V40.7064H38.9059C38.5694 40.7064 38.3427 40.7625 38.2258 40.8747C38.109 40.9868 38.0506 41.1224 38.0506 41.2813C38.0506 41.4636 38.123 41.6108 38.2679 41.723C38.4128 41.8305 38.6138 41.8843 38.8709 41.8843C39.1233 41.8843 39.3429 41.8282 39.5299 41.716C39.7215 41.6038 39.8594 41.4402 39.9436 41.2252L40.0768 41.688C39.988 41.9076 39.8314 42.0829 39.607 42.2138C39.3827 42.34 39.0999 42.4031 38.7587 42.4031ZM42.579 42.361L41.1978 38.6451H41.8358L43.0627 42.0105H42.7613L44.0373 38.6451H44.6052L45.8532 42.0105H45.5587L46.8137 38.6451H47.4166L46.0284 42.361H45.3834L44.2126 39.2902H44.4089L43.224 42.361H42.579ZM50.0806 42.361V37.4532H51.9947C52.4247 37.4532 52.7916 37.521 53.0954 37.6566C53.3992 37.7921 53.6329 37.9884 53.7965 38.2455C53.9601 38.5026 54.0419 38.8087 54.0419 39.164C54.0419 39.5192 53.9601 39.8253 53.7965 40.0824C53.6329 40.3348 53.3992 40.5311 53.0954 40.6713C52.7916 40.8069 52.4247 40.8747 51.9947 40.8747H50.4662L50.7817 40.5451V42.361H50.0806ZM50.7817 40.6153L50.4662 40.2647H51.9736C52.4223 40.2647 52.7612 40.1689 52.9902 39.9772C53.2239 39.7856 53.3408 39.5145 53.3408 39.164C53.3408 38.8134 53.2239 38.5423 52.9902 38.3507C52.7612 38.159 52.4223 38.0632 51.9736 38.0632H50.4662L50.7817 37.7127V40.6153ZM54.9122 42.361V38.6451H55.5572V39.6547L55.4941 39.4023C55.5969 39.1453 55.7699 38.9489 56.0129 38.8134C56.256 38.6779 56.5551 38.6101 56.9103 38.6101V39.2621C56.8823 39.2574 56.8542 39.2551 56.8262 39.2551C56.8028 39.2551 56.7795 39.2551 56.7561 39.2551C56.3962 39.2551 56.1111 39.3626 55.9007 39.5776C55.6904 39.7926 55.5852 40.1034 55.5852 40.5101V42.361H54.9122ZM59.7727 42.361V41.5758L59.7376 41.4285V40.0894C59.7376 39.8043 59.6535 39.5846 59.4852 39.4304C59.3216 39.2715 59.0739 39.192 58.742 39.192C58.5224 39.192 58.3073 39.2294 58.097 39.3042C57.8867 39.3743 57.7091 39.4701 57.5642 39.5916L57.2837 39.0868C57.4754 38.9326 57.7044 38.8157 57.9708 38.7363C58.2419 38.6521 58.5247 38.6101 58.8192 38.6101C59.3286 38.6101 59.7213 38.7339 59.997 38.9817C60.2728 39.2294 60.4107 39.608 60.4107 40.1175V42.361H59.7727ZM58.5527 42.4031C58.277 42.4031 58.0339 42.3563 57.8236 42.2629C57.6179 42.1694 57.459 42.0408 57.3468 41.8773C57.2346 41.709 57.1786 41.5197 57.1786 41.3094C57.1786 41.1084 57.2253 40.9261 57.3188 40.7625C57.4169 40.5989 57.5735 40.468 57.7885 40.3699C58.0082 40.2717 58.3027 40.2226 58.6719 40.2226H59.8498V40.7064H58.7C58.3634 40.7064 58.1367 40.7625 58.0199 40.8747C57.903 40.9868 57.8446 41.1224 57.8446 41.2813C57.8446 41.4636 57.9171 41.6108 58.062 41.723C58.2069 41.8305 58.4078 41.8843 58.6649 41.8843C58.9173 41.8843 59.137 41.8282 59.324 41.716C59.5156 41.6038 59.6535 41.4402 59.7376 41.2252L59.8708 41.688C59.782 41.9076 59.6254 42.0829 59.4011 42.2138C59.1767 42.34 58.8939 42.4031 58.5527 42.4031ZM63.2758 42.4031C62.8972 42.4031 62.5583 42.3213 62.2592 42.1577C61.9647 41.9941 61.7334 41.7698 61.5651 41.4846C61.3968 41.1995 61.3127 40.8723 61.3127 40.5031C61.3127 40.1338 61.3968 39.8066 61.5651 39.5215C61.7334 39.2364 61.9647 39.0144 62.2592 38.8555C62.5583 38.6919 62.8972 38.6101 63.2758 38.6101C63.6123 38.6101 63.9115 38.6779 64.1732 38.8134C64.4397 38.9443 64.6453 39.1406 64.7902 39.4023L64.2784 39.7319C64.1569 39.5496 64.0073 39.4164 63.8297 39.3322C63.6568 39.2434 63.4698 39.199 63.2688 39.199C63.0258 39.199 62.8084 39.2528 62.6168 39.3603C62.4251 39.4678 62.2732 39.6197 62.161 39.816C62.0489 40.0076 61.9928 40.2367 61.9928 40.5031C61.9928 40.7695 62.0489 41.0009 62.161 41.1972C62.2732 41.3935 62.4251 41.5454 62.6168 41.6529C62.8084 41.7604 63.0258 41.8142 63.2688 41.8142C63.4698 41.8142 63.6568 41.7721 63.8297 41.688C64.0073 41.5991 64.1569 41.4636 64.2784 41.2813L64.7902 41.6038C64.6453 41.8609 64.4397 42.0595 64.1732 42.1998C63.9115 42.3353 63.6123 42.4031 63.2758 42.4031ZM66.9856 42.4031C66.6116 42.4031 66.3218 42.3026 66.1162 42.1016C65.9105 41.9006 65.8077 41.6132 65.8077 41.2392V37.8318H66.4808V41.2112C66.4808 41.4122 66.5298 41.5664 66.628 41.6739C66.7308 41.7814 66.8757 41.8352 67.0627 41.8352C67.273 41.8352 67.4483 41.7768 67.5885 41.6599L67.7989 42.1437C67.696 42.2325 67.5722 42.2979 67.4273 42.34C67.287 42.3821 67.1398 42.4031 66.9856 42.4031ZM65.1767 39.199V38.6451H67.5465V39.199H65.1767ZM68.6126 42.361V38.6451H69.2856V42.361H68.6126ZM68.9491 37.93C68.8182 37.93 68.7084 37.8879 68.6196 37.8038C68.5355 37.7197 68.4934 37.6168 68.4934 37.4953C68.4934 37.3691 68.5355 37.2639 68.6196 37.1798C68.7084 37.0957 68.8182 37.0536 68.9491 37.0536C69.08 37.0536 69.1875 37.0957 69.2716 37.1798C69.3604 37.2593 69.4048 37.3598 69.4048 37.4813C69.4048 37.6075 69.3628 37.715 69.2786 37.8038C69.1945 37.8879 69.0847 37.93 68.9491 37.93ZM72.1903 42.4031C71.8117 42.4031 71.4729 42.3213 71.1737 42.1577C70.8793 41.9941 70.6479 41.7698 70.4796 41.4846C70.3114 41.1995 70.2272 40.8723 70.2272 40.5031C70.2272 40.1338 70.3114 39.8066 70.4796 39.5215C70.6479 39.2364 70.8793 39.0144 71.1737 38.8555C71.4729 38.6919 71.8117 38.6101 72.1903 38.6101C72.5269 38.6101 72.826 38.6779 73.0878 38.8134C73.3542 38.9443 73.5598 39.1406 73.7047 39.4023L73.1929 39.7319C73.0714 39.5496 72.9218 39.4164 72.7442 39.3322C72.5713 39.2434 72.3843 39.199 72.1833 39.199C71.9403 39.199 71.7229 39.2528 71.5313 39.3603C71.3397 39.4678 71.1877 39.6197 71.0756 39.816C70.9634 40.0076 70.9073 40.2367 70.9073 40.5031C70.9073 40.7695 70.9634 41.0009 71.0756 41.1972C71.1877 41.3935 71.3397 41.5454 71.5313 41.6529C71.7229 41.7604 71.9403 41.8142 72.1833 41.8142C72.3843 41.8142 72.5713 41.7721 72.7442 41.688C72.9218 41.5991 73.0714 41.4636 73.1929 41.2813L73.7047 41.6038C73.5598 41.8609 73.3542 42.0595 73.0878 42.1998C72.826 42.3353 72.5269 42.4031 72.1903 42.4031ZM76.176 42.4031C75.7787 42.4031 75.4281 42.3213 75.1243 42.1577C74.8252 41.9941 74.5915 41.7698 74.4232 41.4846C74.2596 41.1995 74.1778 40.8723 74.1778 40.5031C74.1778 40.1338 74.2573 39.8066 74.4162 39.5215C74.5798 39.2364 74.8018 39.0144 75.0823 38.8555C75.3674 38.6919 75.6875 38.6101 76.0428 38.6101C76.4027 38.6101 76.7205 38.6895 76.9963 38.8485C77.2721 39.0074 77.4871 39.2317 77.6413 39.5215C77.8002 39.8066 77.8797 40.1408 77.8797 40.5241C77.8797 40.5522 77.8773 40.5849 77.8727 40.6223C77.8727 40.6597 77.8703 40.6947 77.8657 40.7274H74.7037V40.2437H77.5151L77.2417 40.4119C77.2463 40.1736 77.1973 39.9609 77.0944 39.7739C76.9916 39.587 76.8491 39.4421 76.6668 39.3392C76.4891 39.2317 76.2812 39.178 76.0428 39.178C75.8091 39.178 75.6011 39.2317 75.4188 39.3392C75.2365 39.4421 75.0939 39.5893 74.9911 39.7809C74.8883 39.9679 74.8369 40.1829 74.8369 40.426V40.5381C74.8369 40.7859 74.893 41.0079 75.0051 41.2042C75.122 41.3958 75.2832 41.5454 75.4889 41.6529C75.6946 41.7604 75.9306 41.8142 76.197 41.8142C76.4167 41.8142 76.6153 41.7768 76.793 41.702C76.9753 41.6272 77.1342 41.515 77.2697 41.3654L77.6413 41.8001C77.473 41.9964 77.2627 42.146 77.0103 42.2488C76.7626 42.3517 76.4845 42.4031 76.176 42.4031Z" fill="white"/>
</g>
<defs>
<clipPath id="clip0_320_284">
<rect width="106.527" height="53" fill="white"/>
</clipPath>
</defs>
</svg>
