<?xml version="1.0" encoding="utf-8"?>
<!-- Generator: Adobe Illustrator 27.0.0, SVG Export Plug-In . SVG Version: 6.00 Build 0)  -->
<svg version="1.1" id="Layer_1" xmlns="http://www.w3.org/2000/svg" xmlns:xlink="http://www.w3.org/1999/xlink" x="0px" y="0px"
	 viewBox="0 0 565.4 447.3" style="enable-background:new 0 0 565.4 447.3;" xml:space="preserve">
<style type="text/css">
	.st0{clip-path:url(#SVGID_00000145752271879982326880000015221186561101363639_);}
	.st1{fill:#DC143C;}
</style>
<g>
	<defs>
		<rect id="SVGID_1_" x="17.1" y="17.7" width="531.7" height="412.7"/>
	</defs>
	<clipPath id="SVGID_00000014605664559029678050000010221566713974532524_">
		<use xlink:href="#SVGID_1_"  style="overflow:visible;"/>
	</clipPath>
	<g style="clip-path:url(#SVGID_00000014605664559029678050000010221566713974532524_);">
		<path class="st1" d="M516.8,17.8h-13.9c-0.6,0-1.1,0.1-1.7,0.2s-1.1,0.3-1.6,0.5c-0.5,0.2-1,0.5-1.5,0.8c-0.5,0.3-0.9,0.7-1.3,1.1
			c-0.4,0.4-0.7,0.8-1.1,1.3c-0.3,0.5-0.6,0.9-0.8,1.5c-0.2,0.5-0.4,1-0.5,1.6c-0.1,0.5-0.2,1.1-0.2,1.7c0,0.6,0.1,1.1,0.2,1.7
			c0.1,0.5,0.3,1.1,0.5,1.6c0.2,0.5,0.5,1,0.8,1.5c0.3,0.5,0.7,0.9,1.1,1.3c0.4,0.4,0.8,0.7,1.3,1.1c0.5,0.3,1,0.6,1.5,0.8
			c0.5,0.2,1,0.4,1.6,0.5c0.5,0.1,1.1,0.2,1.7,0.2h13.9c1,0,1.9,0.1,2.8,0.3c0.9,0.2,1.9,0.5,2.7,0.8c0.9,0.4,1.7,0.8,2.5,1.3
			s1.5,1.1,2.2,1.8c0.7,0.7,1.3,1.4,1.8,2.2c0.5,0.8,1,1.6,1.3,2.5c0.4,0.9,0.6,1.8,0.8,2.7c0.2,0.9,0.3,1.9,0.3,2.8v39.6h-452
			c-0.6,0-1.1,0.1-1.7,0.2s-1.1,0.3-1.6,0.5c-0.5,0.2-1,0.5-1.5,0.8c-0.5,0.3-0.9,0.7-1.3,1.1c-0.4,0.4-0.7,0.8-1.1,1.3
			c-0.3,0.5-0.6,0.9-0.8,1.5c-0.2,0.5-0.4,1-0.5,1.6S71,96.8,71,97.4c0,0.6,0.1,1.1,0.2,1.7c0.1,0.5,0.3,1.1,0.5,1.6
			c0.2,0.5,0.5,1,0.8,1.5c0.3,0.5,0.7,0.9,1.1,1.3c0.4,0.4,0.8,0.7,1.3,1.1c0.5,0.3,0.9,0.6,1.5,0.8s1,0.4,1.6,0.5
			c0.5,0.1,1.1,0.2,1.7,0.2h452v292.9c0,1-0.1,1.9-0.3,2.8c-0.2,0.9-0.5,1.9-0.8,2.7c-0.4,0.9-0.8,1.7-1.3,2.5s-1.1,1.5-1.8,2.2
			c-0.7,0.7-1.4,1.3-2.2,1.8c-0.8,0.5-1.6,1-2.5,1.3c-0.9,0.4-1.8,0.6-2.7,0.8c-0.9,0.2-1.9,0.3-2.8,0.3H48.6c-1,0-1.9-0.1-2.8-0.3
			c-0.9-0.2-1.9-0.5-2.7-0.8c-0.9-0.4-1.7-0.8-2.5-1.3c-0.8-0.5-1.5-1.1-2.2-1.8c-0.7-0.7-1.3-1.4-1.8-2.2c-0.5-0.8-1-1.6-1.3-2.5
			c-0.4-0.9-0.6-1.8-0.8-2.7c-0.2-0.9-0.3-1.9-0.3-2.8V49.3c0-1,0.1-1.9,0.3-2.8c0.2-0.9,0.5-1.8,0.8-2.7c0.4-0.9,0.8-1.7,1.3-2.5
			c0.5-0.8,1.1-1.5,1.8-2.2c0.7-0.7,1.4-1.3,2.2-1.8c0.8-0.5,1.6-1,2.5-1.3c0.9-0.4,1.8-0.6,2.7-0.8c0.9-0.2,1.9-0.3,2.8-0.3h391.1
			c0.6,0,1.1-0.1,1.7-0.2c0.5-0.1,1.1-0.3,1.6-0.5c0.5-0.2,1-0.5,1.5-0.8c0.5-0.3,0.9-0.7,1.3-1.1c0.4-0.4,0.7-0.8,1.1-1.3
			c0.3-0.5,0.6-0.9,0.8-1.5c0.2-0.5,0.4-1,0.5-1.6c0.1-0.5,0.2-1.1,0.2-1.7c0-0.6-0.1-1.1-0.2-1.7c-0.1-0.5-0.3-1.1-0.5-1.6
			c-0.2-0.5-0.5-1-0.8-1.5s-0.7-0.9-1.1-1.3c-0.4-0.4-0.8-0.7-1.3-1.1c-0.5-0.3-0.9-0.6-1.5-0.8c-0.5-0.2-1-0.4-1.6-0.5
			c-0.5-0.1-1.1-0.2-1.7-0.2H48.6c-1,0-2.1,0.1-3.1,0.2c-1,0.1-2,0.3-3.1,0.5c-1,0.2-2,0.5-3,0.8c-1,0.3-2,0.7-2.9,1
			c-1,0.4-1.9,0.8-2.8,1.3c-0.9,0.5-1.8,1-2.7,1.6c-0.9,0.6-1.7,1.2-2.5,1.8s-1.6,1.3-2.3,2.1c-0.7,0.7-1.4,1.5-2.1,2.3
			c-0.7,0.8-1.3,1.6-1.8,2.5c-0.6,0.9-1.1,1.7-1.6,2.7c-0.5,0.9-0.9,1.8-1.3,2.8c-0.4,1-0.7,1.9-1,2.9c-0.3,1-0.6,2-0.8,3
			c-0.2,1-0.4,2-0.5,3.1c-0.1,1-0.2,2.1-0.2,3.1v349.5c0,1,0.1,2.1,0.2,3.1c0.1,1,0.3,2.1,0.5,3.1c0.2,1,0.5,2,0.8,3
			c0.3,1,0.6,2,1,2.9c0.4,1,0.8,1.9,1.3,2.8c0.5,0.9,1,1.8,1.6,2.7s1.2,1.7,1.8,2.5s1.3,1.6,2.1,2.3c0.7,0.7,1.5,1.4,2.3,2.1
			c0.8,0.7,1.6,1.3,2.5,1.8c0.9,0.6,1.7,1.1,2.7,1.6c0.9,0.5,1.8,0.9,2.8,1.3c1,0.4,1.9,0.7,2.9,1c1,0.3,2,0.5,3,0.8
			c1,0.2,2,0.4,3.1,0.5c1,0.1,2.1,0.2,3.1,0.2h468.2c1,0,2.1-0.1,3.1-0.2c1-0.1,2-0.3,3.1-0.5c1-0.2,2-0.5,3-0.8c1-0.3,2-0.6,2.9-1
			c1-0.4,1.9-0.8,2.8-1.3c0.9-0.5,1.8-1,2.7-1.6s1.7-1.2,2.5-1.8c0.8-0.7,1.6-1.3,2.3-2.1c0.7-0.7,1.4-1.5,2.1-2.3
			c0.7-0.8,1.3-1.6,1.8-2.5c0.6-0.9,1.1-1.7,1.6-2.7c0.5-0.9,0.9-1.8,1.3-2.8c0.4-1,0.7-1.9,1-2.9c0.3-1,0.6-2,0.8-3
			c0.2-1,0.4-2,0.5-3.1c0.1-1,0.2-2.1,0.2-3.1V49.3c0-1-0.1-2.1-0.2-3.1c-0.1-1-0.3-2-0.5-3.1c-0.2-1-0.5-2-0.8-3
			c-0.3-1-0.6-2-1-2.9c-0.4-1-0.8-1.9-1.3-2.8c-0.5-0.9-1-1.8-1.6-2.7c-0.6-0.9-1.2-1.7-1.8-2.5c-0.7-0.8-1.3-1.6-2.1-2.3
			c-0.7-0.7-1.5-1.4-2.3-2.1s-1.6-1.3-2.5-1.8c-0.9-0.6-1.7-1.1-2.7-1.6c-0.9-0.5-1.8-0.9-2.8-1.3c-1-0.4-1.9-0.7-2.9-1
			c-1-0.3-2-0.6-3-0.8c-1-0.2-2-0.4-3.1-0.5C518.9,17.8,517.9,17.8,516.8,17.8z"/>
	</g>
</g>
<path class="st1" d="M362.1,221c0.4,0.4,0.8,0.7,1.3,1.1c0.5,0.3,0.9,0.6,1.5,0.8c0.5,0.2,1,0.4,1.6,0.5c0.5,0.1,1.1,0.2,1.7,0.2
	c0.6,0,1.1-0.1,1.7-0.2c0.5-0.1,1.1-0.3,1.6-0.5c0.5-0.2,1-0.5,1.5-0.8c0.5-0.3,0.9-0.7,1.3-1.1l26.8-26.8l26.8,26.8
	c0.4,0.4,0.8,0.8,1.3,1.1c0.5,0.3,1,0.6,1.5,0.8c0.5,0.2,1.1,0.4,1.6,0.5c0.6,0.1,1.1,0.2,1.7,0.2c0.6,0,1.1,0,1.7-0.1
	c0.6-0.1,1.1-0.3,1.6-0.5c0.5-0.2,1-0.5,1.5-0.8s0.9-0.7,1.3-1.1c0.4-0.4,0.8-0.8,1.1-1.3c0.3-0.5,0.6-1,0.8-1.5
	c0.2-0.5,0.4-1.1,0.5-1.6c0.1-0.6,0.2-1.1,0.2-1.7c0-0.6-0.1-1.1-0.2-1.7s-0.3-1.1-0.5-1.6c-0.2-0.5-0.5-1-0.8-1.5
	c-0.3-0.5-0.7-0.9-1.1-1.3l-26.8-26.8l26.8-26.8c0.4-0.4,0.8-0.8,1.1-1.3c0.3-0.5,0.6-1,0.8-1.5c0.2-0.5,0.4-1.1,0.5-1.6
	c0.1-0.6,0.2-1.1,0.2-1.7c0-0.6,0-1.1-0.2-1.7c-0.1-0.6-0.3-1.1-0.5-1.6c-0.2-0.5-0.5-1-0.8-1.5c-0.3-0.5-0.7-0.9-1.1-1.3
	c-0.4-0.4-0.8-0.8-1.3-1.1s-1-0.6-1.5-0.8c-0.5-0.2-1.1-0.4-1.6-0.5s-1.1-0.2-1.7-0.1c-0.6,0-1.1,0.1-1.7,0.2
	c-0.6,0.1-1.1,0.3-1.6,0.5c-0.5,0.2-1,0.5-1.5,0.8c-0.5,0.3-0.9,0.7-1.3,1.1l-26.8,26.8l-26.8-26.8c-0.4-0.4-0.8-0.8-1.3-1.1
	c-0.5-0.3-1-0.6-1.5-0.8c-0.5-0.2-1.1-0.4-1.6-0.5c-0.6-0.1-1.1-0.2-1.7-0.2c-0.6,0-1.1,0-1.7,0.1c-0.6,0.1-1.1,0.3-1.6,0.5
	c-0.5,0.2-1,0.5-1.5,0.8c-0.5,0.3-0.9,0.7-1.3,1.1c-0.4,0.4-0.8,0.8-1.1,1.3c-0.3,0.5-0.6,1-0.8,1.5c-0.2,0.5-0.4,1.1-0.5,1.6
	c-0.1,0.6-0.2,1.1-0.1,1.7c0,0.6,0.1,1.1,0.2,1.7c0.1,0.6,0.3,1.1,0.5,1.6c0.2,0.5,0.5,1,0.8,1.5c0.3,0.5,0.7,0.9,1.1,1.3l26.8,26.8
	l-26.8,26.8c-0.4,0.4-0.7,0.8-1.1,1.3c-0.3,0.5-0.6,0.9-0.8,1.5c-0.2,0.5-0.4,1-0.5,1.6c-0.1,0.5-0.2,1.1-0.2,1.7
	c0,0.6,0.1,1.1,0.2,1.7c0.1,0.5,0.3,1.1,0.5,1.6c0.2,0.5,0.5,1,0.8,1.5C361.4,220.2,361.7,220.6,362.1,221z"/>
<path class="st1" d="M125.8,221c0.4,0.4,0.8,0.7,1.3,1.1c0.5,0.3,0.9,0.6,1.5,0.8c0.5,0.2,1,0.4,1.6,0.5c0.5,0.1,1.1,0.2,1.7,0.2
	c0.6,0,1.1-0.1,1.7-0.2c0.5-0.1,1.1-0.3,1.6-0.5c0.5-0.2,1-0.5,1.5-0.8c0.5-0.3,0.9-0.7,1.3-1.1l26.8-26.8l26.8,26.8
	c0.4,0.4,0.8,0.8,1.3,1.1c0.5,0.3,1,0.6,1.5,0.8c0.5,0.2,1.1,0.4,1.6,0.5c0.6,0.1,1.1,0.2,1.7,0.2c0.6,0,1.1,0,1.7-0.1
	c0.6-0.1,1.1-0.3,1.6-0.5c0.5-0.2,1-0.5,1.5-0.8c0.5-0.3,0.9-0.7,1.3-1.1c0.4-0.4,0.8-0.8,1.1-1.3c0.3-0.5,0.6-1,0.8-1.5
	c0.2-0.5,0.4-1.1,0.5-1.6c0.1-0.6,0.2-1.1,0.1-1.7c0-0.6-0.1-1.1-0.2-1.7c-0.1-0.6-0.3-1.1-0.5-1.6c-0.2-0.5-0.5-1-0.8-1.5
	c-0.3-0.5-0.7-0.9-1.1-1.3l-26.8-26.8l26.8-26.8c0.4-0.4,0.7-0.8,1-1.3c0.3-0.5,0.5-0.9,0.7-1.5c0.2-0.5,0.3-1,0.4-1.6
	c0.1-0.5,0.1-1.1,0.1-1.6c0-0.5-0.1-1.1-0.2-1.6c-0.1-0.5-0.3-1.1-0.5-1.6c-0.2-0.5-0.5-1-0.8-1.4c-0.3-0.5-0.7-0.9-1-1.3
	c-0.4-0.4-0.8-0.7-1.3-1c-0.5-0.3-0.9-0.6-1.4-0.8c-0.5-0.2-1-0.4-1.6-0.5c-0.5-0.1-1.1-0.2-1.6-0.2c-0.5,0-1.1,0-1.6,0.1
	c-0.5,0.1-1.1,0.2-1.6,0.4c-0.5,0.2-1,0.4-1.5,0.7c-0.5,0.3-0.9,0.6-1.3,1l-26.8,26.8l-26.8-26.8c-0.4-0.4-0.8-0.7-1.3-1
	c-0.5-0.3-0.9-0.5-1.5-0.7c-0.5-0.2-1-0.3-1.6-0.4c-0.5-0.1-1.1-0.1-1.6-0.1c-0.5,0-1.1,0.1-1.6,0.2c-0.5,0.1-1.1,0.3-1.6,0.5
	c-0.5,0.2-1,0.5-1.4,0.8c-0.5,0.3-0.9,0.7-1.3,1c-0.4,0.4-0.7,0.8-1,1.3c-0.3,0.5-0.6,0.9-0.8,1.4c-0.2,0.5-0.4,1-0.5,1.6
	c-0.1,0.5-0.2,1.1-0.2,1.6c0,0.5,0,1.1,0.1,1.6c0.1,0.5,0.2,1.1,0.4,1.6c0.2,0.5,0.4,1,0.7,1.5c0.3,0.5,0.6,0.9,1,1.3l26.8,26.8
	l-26.8,26.8c-0.4,0.4-0.7,0.8-1.1,1.3c-0.3,0.5-0.6,0.9-0.8,1.5c-0.2,0.5-0.4,1-0.5,1.6c-0.1,0.5-0.2,1.1-0.2,1.7
	c0,0.6,0.1,1.1,0.2,1.7c0.1,0.5,0.3,1.1,0.5,1.6c0.2,0.5,0.5,1,0.8,1.5C125.1,220.2,125.4,220.6,125.8,221z"/>
<path class="st1" d="M173.9,59.3c0,0.6-0.1,1.2-0.2,1.8c-0.1,0.6-0.3,1.2-0.5,1.7c-0.2,0.6-0.5,1.1-0.9,1.6c-0.3,0.5-0.7,1-1.2,1.4
	c-0.4,0.4-0.9,0.8-1.4,1.2c-0.5,0.3-1,0.6-1.6,0.9c-0.6,0.2-1.1,0.4-1.7,0.5c-0.6,0.1-1.2,0.2-1.8,0.2c-0.6,0-1.2-0.1-1.8-0.2
	c-0.6-0.1-1.2-0.3-1.8-0.5c-0.6-0.2-1.1-0.5-1.6-0.9c-0.5-0.3-1-0.7-1.4-1.2c-0.4-0.4-0.8-0.9-1.2-1.4c-0.3-0.5-0.6-1-0.9-1.6
	c-0.2-0.6-0.4-1.1-0.5-1.7c-0.1-0.6-0.2-1.2-0.2-1.8c0-0.6,0.1-1.2,0.2-1.8s0.3-1.2,0.5-1.8c0.2-0.6,0.5-1.1,0.9-1.6
	c0.3-0.5,0.7-1,1.2-1.4c0.4-0.4,0.9-0.8,1.4-1.2c0.5-0.3,1-0.6,1.6-0.9c0.6-0.2,1.2-0.4,1.8-0.5c0.6-0.1,1.2-0.2,1.8-0.2
	c0.6,0,1.2,0.1,1.8,0.2c0.6,0.1,1.2,0.3,1.7,0.5c0.6,0.2,1.1,0.5,1.6,0.9c0.5,0.3,1,0.7,1.4,1.2c0.4,0.4,0.8,0.9,1.2,1.4
	c0.3,0.5,0.6,1,0.9,1.6c0.2,0.6,0.4,1.2,0.5,1.8C173.9,58.1,173.9,58.7,173.9,59.3z"/>
<path class="st1" d="M126.7,59.3c0,0.6-0.1,1.2-0.2,1.8c-0.1,0.6-0.3,1.2-0.5,1.7c-0.2,0.6-0.5,1.1-0.9,1.6c-0.3,0.5-0.7,1-1.2,1.4
	c-0.4,0.4-0.9,0.8-1.4,1.2c-0.5,0.3-1,0.6-1.6,0.9c-0.6,0.2-1.2,0.4-1.8,0.5c-0.6,0.1-1.2,0.2-1.8,0.2c-0.6,0-1.2-0.1-1.8-0.2
	c-0.6-0.1-1.2-0.3-1.7-0.5c-0.6-0.2-1.1-0.5-1.6-0.9c-0.5-0.3-1-0.7-1.4-1.2c-0.4-0.4-0.8-0.9-1.2-1.4c-0.3-0.5-0.6-1-0.9-1.6
	c-0.2-0.6-0.4-1.1-0.5-1.7c-0.1-0.6-0.2-1.2-0.2-1.8c0-0.6,0.1-1.2,0.2-1.8c0.1-0.6,0.3-1.2,0.5-1.8c0.2-0.6,0.5-1.1,0.9-1.6
	c0.3-0.5,0.7-1,1.2-1.4c0.4-0.4,0.9-0.8,1.4-1.2c0.5-0.3,1-0.6,1.6-0.9c0.6-0.2,1.1-0.4,1.7-0.5c0.6-0.1,1.2-0.2,1.8-0.2
	c0.6,0,1.2,0.1,1.8,0.2c0.6,0.1,1.2,0.3,1.8,0.5c0.6,0.2,1.1,0.5,1.6,0.9c0.5,0.3,1,0.7,1.4,1.2c0.4,0.4,0.8,0.9,1.2,1.4
	c0.3,0.5,0.6,1,0.9,1.6c0.2,0.6,0.4,1.2,0.5,1.8S126.7,58.7,126.7,59.3z"/>
<path class="st1" d="M79.4,59.3c0,0.6-0.1,1.2-0.2,1.8c-0.1,0.6-0.3,1.2-0.5,1.7c-0.2,0.6-0.5,1.1-0.9,1.6c-0.3,0.5-0.7,1-1.2,1.4
	c-0.4,0.4-0.9,0.8-1.4,1.2c-0.5,0.3-1,0.6-1.6,0.9c-0.6,0.2-1.1,0.4-1.8,0.5c-0.6,0.1-1.2,0.2-1.8,0.2s-1.2-0.1-1.8-0.2
	c-0.6-0.1-1.2-0.3-1.8-0.5c-0.6-0.2-1.1-0.5-1.6-0.9c-0.5-0.3-1-0.7-1.4-1.2c-0.4-0.4-0.8-0.9-1.2-1.4c-0.3-0.5-0.6-1-0.9-1.6
	c-0.2-0.6-0.4-1.1-0.5-1.7c-0.1-0.6-0.2-1.2-0.2-1.8c0-0.6,0.1-1.2,0.2-1.8s0.3-1.2,0.5-1.8c0.2-0.6,0.5-1.1,0.9-1.6
	c0.3-0.5,0.7-1,1.2-1.4c0.4-0.4,0.9-0.8,1.4-1.2c0.5-0.3,1-0.6,1.6-0.9c0.6-0.2,1.1-0.4,1.8-0.5c0.6-0.1,1.2-0.2,1.8-0.2
	s1.2,0.1,1.8,0.2c0.6,0.1,1.2,0.3,1.8,0.5c0.6,0.2,1.1,0.5,1.6,0.9c0.5,0.3,1,0.7,1.4,1.2c0.4,0.4,0.8,0.9,1.2,1.4
	c0.3,0.5,0.6,1,0.9,1.6c0.2,0.6,0.4,1.2,0.5,1.8S79.4,58.7,79.4,59.3z"/>
<path class="st1" d="M228.8,282.3c-22,5.8-44.2,15.2-66.2,28.1c-0.5,0.3-0.9,0.6-1.3,1c-0.4,0.4-0.8,0.8-1.1,1.2
	c-0.3,0.4-0.6,0.9-0.9,1.4c-0.2,0.5-0.4,1-0.6,1.6c-0.1,0.5-0.2,1.1-0.3,1.6c0,0.6,0,1.1,0.1,1.7c0.1,0.6,0.2,1.1,0.4,1.6
	c0.2,0.5,0.4,1,0.7,1.5s0.6,0.9,1,1.3c0.4,0.4,0.8,0.8,1.2,1.1c0.4,0.3,0.9,0.6,1.4,0.9c0.5,0.2,1,0.4,1.6,0.6s1.1,0.2,1.6,0.3
	s1.1,0,1.7-0.1c0.5-0.1,1.1-0.2,1.6-0.4c0.5-0.2,1-0.4,1.5-0.7c20.6-12,41.4-20.9,61.9-26.3c53.5-14.1,107.8-5.3,161.3,26.3
	c0.5,0.3,1,0.5,1.5,0.7c0.5,0.2,1.1,0.3,1.6,0.4c0.5,0.1,1.1,0.1,1.7,0.1c0.6,0,1.1-0.1,1.6-0.3c0.5-0.1,1.1-0.3,1.6-0.6
	c0.5-0.2,1-0.5,1.4-0.9c0.4-0.3,0.8-0.7,1.2-1.1c0.4-0.4,0.7-0.9,1-1.3c0.3-0.5,0.5-1,0.7-1.5c0.2-0.5,0.3-1.1,0.4-1.6
	c0.1-0.5,0.1-1.1,0.1-1.6c0-0.6-0.1-1.1-0.2-1.6c-0.1-0.5-0.3-1.1-0.6-1.6c-0.2-0.5-0.5-1-0.8-1.4c-0.3-0.4-0.7-0.8-1.1-1.2
	c-0.4-0.4-0.9-0.7-1.3-1C345.4,276.4,286.8,267,228.8,282.3z"/>
</svg>
