<?xml version="1.0" encoding="utf-8"?>
<!-- Generator: Adobe Illustrator 27.0.0, SVG Export Plug-In . SVG Version: 6.00 Build 0)  -->
<svg version="1.1" id="Layer_1" 
	 xmlns="http://www.w3.org/2000/svg" xmlns:xlink="http://www.w3.org/1999/xlink" x="0px" y="0px" viewBox="0 0 400.8 62"
	 style="enable-background:new 0 0 400.8 62;" xml:space="preserve">
<style type="text/css">
	.st0{enable-background:new    ;}
	.st1{fill:#DC143C;}
	.st2{fill-rule:evenodd;clip-rule:evenodd;fill:#DC143C;}
</style>
<g class="st0">
	<path class="st1" d="M225.1,0.1h15.5l-24.7,60h-14.8l-24.7-60h15.5l8.1,20.4l8.5,23.3l8.7-23.3L225.1,0.1z"/>
	<path class="st1" d="M273.1,19.4c3.4,1.7,6,4.2,7.8,7.4s2.7,6.9,2.7,11.1c0,1.4-0.1,3.1-0.4,5.1h-31.1c0.4,2.2,1.6,3.9,3.5,5.3
		c1.9,1.3,4.4,2,7.5,2c2.1,0,4.2-0.3,6.2-0.9c2-0.6,3.7-1.5,5.1-2.7l7,7.5c-2.4,2.2-5.2,3.9-8.5,5.1c-3.3,1.2-6.8,1.8-10.5,1.8
		c-4.9,0-9.2-0.9-12.8-2.7s-6.4-4.4-8.3-7.7s-2.9-7.2-2.9-11.7c0-4.3,1-8.2,2.9-11.6s4.6-6,8-7.8c3.4-1.9,7.4-2.8,11.9-2.8
		C265.7,16.8,269.7,17.7,273.1,19.4z M254.9,29.5c-1.7,1.4-2.6,3.3-2.9,5.7h18.7c-0.2-2.5-1.1-4.4-2.7-5.7c-1.6-1.4-3.8-2.1-6.6-2.1
		C258.8,27.4,256.6,28.1,254.9,29.5z"/>
	<path class="st1" d="M291,0.1h13.5v60H291V0.1z"/>
	<path class="st1" d="M344.5,17.9c1.9,0.7,3.6,1.8,5.1,3.1l-5.7,9.9c-1.2-0.7-2.3-1.3-3.3-1.6s-2.1-0.5-3.3-0.5
		c-2.9,0-5.1,0.9-6.8,2.7c-1.7,1.8-2.5,4.5-2.5,8.1v20.6h-13.5V17.7h11.7l1,5.3c2.7-4.2,6.5-6.3,11.3-6.3
		C340.6,16.8,342.5,17.2,344.5,17.9z"/>
	<path class="st1" d="M397.4,17.7v42.4h-11.7l-0.9-5.1c-3.6,3.9-8.3,5.9-14.1,5.9c-3.9,0-7.4-0.9-10.5-2.8c-3.1-1.9-5.4-4.5-7.2-7.8
		c-1.7-3.3-2.6-7.2-2.6-11.4s0.9-8.1,2.6-11.4s4.1-5.9,7.2-7.8c3.1-1.9,6.6-2.8,10.5-2.8c2.9,0,5.5,0.5,7.9,1.5s4.5,2.4,6.2,4.3
		l0.9-5C385.7,17.7,397.4,17.7,397.4,17.7z M381.3,46.7c1.9-2,2.8-4.6,2.8-7.8s-0.9-5.8-2.8-7.8s-4.3-3-7.3-3s-5.4,1-7.2,3
		c-1.9,2-2.8,4.6-2.8,7.7c0,3.1,0.9,5.7,2.8,7.7s4.3,3,7.2,3C377,49.6,379.4,48.7,381.3,46.7z"/>
</g>
<g id="_1482430832656">
	<path class="st2" d="M0,6.9l61.1-2.7l1.7,4.4L0,6.9L0,6.9z M102.5,2.4L157.8,0v11.2L99.6,9.6L102.5,2.4z"/>
	<path class="st2" d="M17.5,18.7L66,17.2l1.3,3.5L17.5,18.7L17.5,18.7z M96.9,16.3l43.5-1.3v8.7l-45.8-1.9L96.9,16.3L96.9,16.3z"/>
	<path class="st2" d="M38.1,32.1l33-1.6l1.3,3.5L38.1,32.1z M91.5,29.5l28.3-1.4v8.4l-30.5-1.6L91.5,29.5L91.5,29.5z"/>
	<path class="st2" d="M57.7,44l18-1.2l1.3,3.5L57.7,44L57.7,44z M86.3,42.1l13.8-0.9V49l-15.9-1.9C84.3,47.1,86.3,42.1,86.3,42.1z"
		/>
	<polygon class="st2" points="69.9,56.8 80.2,54.5 80.7,55.9 81.4,54.2 88,52.7 88,61.1 	"/>
</g>
</svg>
